<svg id="_x33_0" enable-background="new 0 0 64 64" height="512" viewBox="0 0 64 64" width="512" xmlns="http://www.w3.org/2000/svg"><g><path d="m12.293 43.293-.793.793-.793-.793-1.414 1.414.793.793-.793.793 1.414 1.414.793-.793.793.793 1.414-1.414-.793-.793.793-.793z"/><path d="m60.385 45c-2.936 0-5.587 1.419-7.242 3.721l-.507-1.232c-3.624-8.801-12.116-14.489-21.636-14.489h-.618l-.276.553-1.746 3.491c-.341-.013-.679-.044-1.021-.044h-4.999c-6.918 0-13.56 2.549-18.701 7.179l-2.95 2.657.479.719c5.195 7.793 13.889 12.445 23.254 12.445h3.977c8.715 0 17.061-2.598 24.219-7.513 1.577 2.773 4.504 4.513 7.767 4.513 1.442 0 2.615-1.173 2.615-2.615v-6.771c0-1.441-1.173-2.614-2.615-2.614zm-9.843 2.714-2.333-1.895.62-1.239c.65.984 1.223 2.03 1.713 3.134zm-3.043-4.947-.88 1.76-1.526-1.24c-.263-.214-.545-.402-.815-.606l1.079-2.158c.764.692 1.481 1.441 2.142 2.244zm-15.885-7.758c1.053.03 2.091.136 3.107.313l-1.195 2.391c-.992-.223-1.995-.395-3.009-.511zm5.112.776c.951.263 1.878.587 2.776.975l-1.234 2.468c-.904-.38-1.827-.709-2.767-.993zm4.572 1.855c.86.471 1.684 1.001 2.471 1.586l-1.146 2.293c-.821-.529-1.669-1.009-2.539-1.449zm-12.9 20.36h-3.977c-1.686 0-3.346-.17-4.965-.484l.779-1.298c.673-1.122 1.161-2.338 1.451-3.602 2.775.897 5.99.123 8.053-1.941l3.949-3.949-5.452-2.726c-2.617-1.309-5.855-1.309-8.473 0l-.986.494.69 2.07c.353 1.061.533 2.165.533 3.283 0 1.882-.512 3.729-1.479 5.342l-1.104 1.841c-5.629-1.575-10.617-5.013-14.095-9.875l1.654-1.49c4.774-4.298 10.941-6.665 17.364-6.665h4.999c6.002 0 11.859 2.073 16.492 5.838l7.513 6.105c-6.791 4.621-14.697 7.057-22.946 7.057zm-7.034-12.069-.133-.399c1.951-.777 4.233-.682 6.11.257l2.97 1.485-1.986 1.987c-1.558 1.558-3.988 2.132-6.077 1.435l-.271-.09c.015-.253.023-.505.023-.759 0-.341-.015-.681-.043-1.019l4.239-.848-.393-1.961-4.172.834c-.077-.309-.165-.617-.267-.922zm39.636 8.454c0 .339-.276.615-.615.615-2.725 0-5.153-1.557-6.295-4 1.142-2.443 3.57-4 6.295-4 .339 0 .615.276.615.615z"/><path d="m61.415 17 .257-.257c.856-.857 1.328-1.995 1.328-3.207 0-2.501-2.034-4.536-4.535-4.536-1.211 0-2.351.472-3.207 1.329l-1.672 1.671h-9.253l-.306-.229c-7.541-5.656-16.885-8.771-26.312-8.771h-2.715c-7.72 0-14 6.28-14 14s6.28 14 14 14h2.715c9.427 0 18.771-3.115 26.313-8.771l.305-.229h9.253l1.672 1.671c.856.857 1.996 1.329 3.207 1.329 2.501 0 4.535-2.035 4.535-4.536 0-1.212-.472-2.351-1.328-3.208zm-43.7 12h-2.715c-6.617 0-12-5.383-12-12s5.383-12 12-12h2.715c8.997 0 17.916 2.973 25.113 8.371l.172.129v.5 6 .5l-.172.129c-7.197 5.398-16.116 8.371-25.113 8.371zm42.543-10.329c.478.479.742 1.116.742 1.793 0 1.398-1.138 2.536-2.535 2.536-.677 0-1.313-.264-1.793-.743l-2.258-2.257h-9.414v-6h9.414l2.258-2.257c.479-.479 1.116-.743 1.793-.743 1.397 0 2.535 1.138 2.535 2.536 0 .678-.264 1.314-.742 1.792l-1.673 1.672z"/><path d="m22 9h2v2h-2z"/><path d="m18 22h2v2h-2z"/><path d="m15 11h2v2h-2z"/><path d="m11 9h2v2h-2z"/><path d="m29 17h2v2h-2z"/></g></svg>