<svg height="512pt" viewBox="-144 0 512 512" width="512pt" xmlns="http://www.w3.org/2000/svg"><path d="m224.089844 219.882812c0-8.625-4.210938-16.675781-11.027344-21.683593.050781-2.519531.085938-5.050781.085938-7.589844 0-60.363281-25.628907-109.5625-40.902344-133.515625-18.09375-28.371094-44.949219-57.09375-61.265625-57.09375-13.386719 0-33.285157 19.367188-47.441407 37.492188-11.871093 15.199218-33.621093 47.214843-45.902343 90.859374-1.117188 3.96875 1.195312 8.09375 5.164062 9.210938 3.972657 1.113281 8.09375-1.199219 9.210938-5.164062 5.558593-19.753907 13.167969-36.972657 20.820312-51.132813 15.058594 13.351563 34.03125 21.074219 54.417969 21.925781.105469.003906.210938.003906.316406.003906 3.980469 0 7.289063-3.136718 7.453125-7.152343.175781-4.117188-3.027343-7.597657-7.144531-7.769531-17.929688-.75-34.546875-7.90625-47.375-20.25 5.574219-9 10.792969-16.199219 14.808594-21.339844 17.523437-22.4375 31.882812-31.75 35.675781-31.75 4.742187 0 26.1875 14.929687 48.675781 50.1875.585938.925781 1.199219 1.902344 1.816406 2.902344-6.726562 6.445312-14.679687 11.609374-23.273437 15.070312-3.824219 1.539062-5.675781 5.886719-4.136719 9.710938 1.171875 2.910156 3.96875 4.679687 6.925782 4.679687.929687 0 1.871093-.171875 2.785156-.542969 9.230468-3.714844 17.84375-9.054687 25.34375-15.664062 13.578125 25.230468 29.101562 63.984375 29.101562 109.332031 0 62.757813-17.152344 121.335937-44.757812 152.871094-12.449219 14.21875-19.304688 32.441406-19.304688 51.3125v14.566406c0 6.640625-5.402344 12.042969-12.046875 12.042969h-22.261719c-6.640624 0-12.042968-5.402344-12.042968-12.042969v-14.566406c0-18.871094-6.855469-37.09375-19.304688-51.3125-6.097656-6.964844-11.777344-15.390625-16.910156-25.042969.476562-2.003906.949219-4.089844 1.410156-6.289062 4.144532-19.765626 6.71875-44.703126 6.71875-65.074219 0-3.636719-.085937-7.3125-.25-10.914063-.003906-.144531-.023437-.28125-.039062-.421875.1875-1.277343.289062-2.582031.289062-3.914062v-11.941407c0-14.820312-12.058594-26.875-26.875-26.875h-5.972656c-1.050781 0-2.085938.066407-3.105469.183594-.003906-.863281-.023437-1.726562-.023437-2.585937 0-8.539063.558594-17.265625 1.664062-25.929688.523438-4.089843-2.371094-7.828125-6.460937-8.351562-4.089844-.519531-7.828125 2.371093-8.347657 6.460937-1.1875 9.292969-1.785156 18.652344-1.785156 27.820313 0 3.082031.050782 6.179687.128906 9.277343-5.484374 4.921876-8.945312 12.0625-8.945312 20v11.941407c0 1.308593.0976562 2.589843.277344 3.847656-.175782 3.753906-.277344 7.578125-.277344 11.402344 0 20.371093 2.574219 45.308593 6.71875 65.074219 5.746094 27.402343 12.882812 39.621093 23.144531 39.621093 6.234375 0 11.316407-4.527343 15.632813-14.222656 3.722656 5.773437 7.652344 11.058594 11.777344 15.769531 10.0625 11.496094 15.605468 26.226563 15.605468 41.476563v10.453125c-1.828125 4.914062-3.5 10.039062-4.964844 15.277344-4.519531 16.191406-8.007812 36.574218-9.101562 53.203124-1.558594 23.679688 1.683594 35.34375 10.519531 37.808594.996094.28125 2.058594.464844 3.195313.464844 6.625 0 15.902344-6.246094 30.019531-36.789062 1.726563-3.742188.09375-8.179688-3.648437-9.910157-3.742188-1.726562-8.175782-.097656-9.90625 3.644531-6.730469 14.5625-11.902344 22.167969-14.984376 25.703126-1.828124-10.617188.222657-38.984376 7.15625-65.867188 4.851563 4.671875 11.441407 7.554688 18.691407 7.554688h4.953125c4.570312 15.777343 11.855468 34.101562 19.238281 48.316406 9.695313 18.671875 17.726563 27.308594 25.582031 27.308594 1.003906 0 2.007813-.140626 3.011719-.421876 8.835937-2.46875 12.078125-14.128906 10.519531-37.8125-1.09375-16.625-4.582031-37.011718-9.101562-53.203124-1.464844-5.238282-3.136719-10.363282-4.964844-15.277344v-10.453125c0-15.25 5.542969-29.980469 15.605469-41.476563 4.65625-5.3125 9.019531-11.253906 13.074219-17.730468 4.492187 11.074218 9.789062 16.183593 16.460937 16.183593 10.257813 0 17.398437-12.21875 23.144531-39.621093 4.144532-19.765626 6.71875-44.699219 6.71875-65.074219 0-3.835938-.101562-7.691407-.285156-11.480469.171875-1.234375.285156-2.488281.285156-3.765625v-11.945313zm-191.246094-11.945312c6.585938 0 11.945312 5.355469 11.945312 11.945312v11.941407c0 6.585937-5.359374 11.945312-11.945312 11.945312h-5.972656c-6.585938 0-11.945313-5.355469-11.945313-11.945312v-11.941407c0-6.585937 5.359375-11.945312 11.945313-11.945312zm-12.417969 96.625c-2.886719-15.230469-4.792969-32.792969-5.335937-48.585938 3.558594 1.742188 7.558594 2.722657 11.78125 2.722657h5.972656c4.222656 0 8.21875-.980469 11.78125-2.722657-.542969 15.792969-2.449219 33.355469-5.335938 48.585938-3.472656 18.3125-7.222656 27.222656-9.433593 30.792969-2.210938-3.570313-5.957031-12.480469-9.429688-30.792969zm127.519531 190.1875c-6.898437-7.878906-19.5-32.378906-27.5625-58.414062h1.730469c7.25 0 13.839844-2.882813 18.691407-7.554688 6.953124 26.96875 8.996093 55.433594 7.140624 65.96875zm55.714844-190.1875c-3.46875 18.277344-7.207031 27.1875-9.421875 30.773438-1.46875-2.34375-3.902343-7.414063-6.589843-17.859376 8.433593-17.746093 14.976562-38.28125 19.320312-60.625.691406-.265624 1.367188-.5625 2.027344-.882812-.542969 15.796875-2.449219 33.359375-5.335938 48.59375zm0 0"/><path d="m131.328125 61.617188c0-11.21875-9.128906-20.34375-20.347656-20.34375s-20.34375 9.125-20.34375 20.34375c0 11.222656 9.125 20.347656 20.34375 20.347656s20.347656-9.125 20.347656-20.347656zm-20.347656 5.417968c-2.984375 0-5.414063-2.429687-5.414063-5.414062 0-2.988282 2.429688-5.417969 5.414063-5.417969 2.988281 0 5.414062 2.429687 5.414062 5.417969 0 2.984375-2.425781 5.414062-5.414062 5.414062zm0 0"/><path d="m83.339844 248.132812c-3.355469 2.390626-4.140625 7.054688-1.75 10.414063 1.457031 2.042969 3.753906 3.132813 6.085937 3.132813 1.5 0 3.011719-.449219 4.324219-1.382813l11.804688-8.402344-.015626 8.675781c-.007812 4.121094 3.328126 7.46875 7.449219 7.476563h.015625c4.117188 0 7.457032-3.332031 7.464844-7.449219l.035156-19.347656 18.882813-13.4375-.019531 8.671875c-.007813 4.125 3.328124 7.472656 7.453124 7.480469h.015626c4.117187 0 7.457031-3.332032 7.464843-7.453125l.035157-19.34375 19.960937-14.207031c3.355469-2.390626 4.140625-7.054688 1.75-10.410157-2.390625-3.359375-7.050781-4.144531-10.410156-1.753906l-11.265625 8.019531.039062-20.398437 19.96875-14.214844c3.355469-2.390625 4.140625-7.054687 1.753906-10.414063-2.394531-3.355468-7.050781-4.140624-10.414062-1.75l-11.277344 8.027344.011719-7.1875c.011719-4.121094-3.324219-7.46875-7.449219-7.476562-.007812 0-.011718 0-.015625 0-4.117187 0-7.457031 3.332031-7.464843 7.449218l-.03125 17.859376-18.882813 13.4375.015625-7.183594c.007812-4.125-3.328125-7.472656-7.453125-7.480469-.003906 0-.007813 0-.015625 0-4.117188 0-7.457031 3.332031-7.464844 7.453125l-.03125 17.855469-20.484375 14.582031c-3.359375 2.390625-4.144531 7.054688-1.753906 10.410156 1.457031 2.046875 3.753906 3.136719 6.089844 3.136719 1.496093 0 3.007812-.449219 4.320312-1.382813l11.792969-8.394531-.035156 20.398438zm35.484375-45.632812 18.882812-13.441406-.039062 20.402344-18.878907 13.4375zm0 0"/></svg>